<svg width="800" height="600" xmlns="http://www.w3.org/2000/svg">
 <!-- Created with Method Draw - http://github.com/duopixel/Method-Draw/ -->
 <g>
  <title>background</title>
  <rect fill="#fff" id="canvas_background" height="602" width="802" y="-1" x="-1"/>
  <g display="none" overflow="visible" y="0" x="0" height="100%" width="100%" id="canvasGrid">
   <rect fill="url(#gridpattern)" stroke-width="0" y="0" x="0" height="100%" width="100%"/>
  </g>
 </g>
 <g>
  <title>Layer 1</title>
  <path id="svg_1" d="m559.45156,128.76649c-17.12067,2.90522 -30.33918,22.05203 -29.11405,37.73499c2.02378,17.85369 25.16884,6.6595 31.99795,1.61184c-4.08247,14.94536 -36.68431,18.01715 -34.85349,-0.16109c-24.83209,16.98285 -43.43495,43.6044 -74.19286,52.20898c-27.75516,5.97013 -56.84649,3.99798 -84.8344,0.50741c-17.01504,-1.47741 -33.25687,-9.44449 -50.40868,-7.77645c-18.37194,4.6703 -33.11117,17.12056 -51.43907,22.02913c-19.32454,7.84278 -11.94355,29.49583 -13.61827,44.83585c0.51685,22.83636 -4.0124,47.02956 -21.18817,64.44882c-9.98583,13.72011 -10.89633,31.77471 -18.91801,46.09335c26.65944,-0.25713 10.5887,-33.28594 25.25676,-46.71053c20.46535,-8.78079 19.8717,-32.90065 22.72683,-50.66108c2.08175,-7.17795 1.04577,-32.61881 9.28695,-29.18741c10.13123,21.09757 15.90052,44.67698 13.60766,67.78593c-13.40958,11.65767 -34.72735,19.96077 -31.6441,41.44835c1.01685,19.46222 -11.76071,33.47512 -21.73911,48.75033c6.40986,8.96376 1.4119,26.91334 19.80953,21.65742c12.30913,2.19636 18.39567,-3.09125 6.25324,-10.95465c-18.35362,-16.34068 7.20701,-37.93305 17.12927,-52.2382c10.25424,-15.97176 31.10132,-16.73476 46.34829,-26.19166c21.0599,-11.65013 36.45852,-29.64165 50.42291,-47.83987c12.22938,12.04593 -19.30717,23.07691 -23.95652,35.37775c-10.14289,10.07957 -28.28755,28.42424 -4.20854,34.66265c18.61365,5.90159 36.14911,17.93566 35.589,36.80727c0.30946,12.80485 34.21595,24.4041 27.27597,3.6068c-11.7334,-19.41483 -39.77228,-27.03937 -47.23497,-49.03956c-5.15246,-16.88538 16.29754,-25.06473 26.57308,-11.36981c18.1935,-1.84491 37.30122,-13.05731 57.26231,-14.77971c20.57753,-7.0977 25.35779,18.8956 41.84064,25.70643c13.73961,12.58837 26.35484,28.52738 24.61903,47.43977c1.67365,16.00768 13.36985,32.73176 33.57186,31.0844c23.57691,-3.6539 -7.15882,-26.92433 -17.95702,-32.27344c-15.64607,-17.29259 -13.06079,-41.87734 -22.79903,-61.78979c-7.01987,-5.87931 0.31835,-34.40496 0.57109,-13.99765c-1.26365,23.38601 34.70936,9.965 32.24848,-7.92198c6.121,-14.2489 -16.25817,-5.45449 -13.29853,-19.82279c-2.4291,-17.88096 -1.04347,-39.99141 -17.78499,-52.2446c-9.64631,-8.79016 -6.71244,-9.64743 3.79191,-2.69478c20.48126,9.82922 16.50237,32.24316 17.93888,49.9089c5.93047,23.1517 29.90225,-6.8189 29.19998,-19.37418c4.10752,-27.2627 18.13392,-55.23158 45.49776,-68.51178c-7.35392,-3.33829 -43.43086,8.75922 -40.40418,-6.46072c14.87457,11.70761 35.34602,-1.04137 52.92827,2.40936c23.32624,0.88737 29.11932,-29.64236 3.55325,-31.13531c-16.53632,-9.07825 -30.77506,-25.12418 -52.14666,-23.87583c-30.98293,9.62275 -11.84338,-17.05161 -3.56025,-29.10285l0.00001,-0.00001zm30.32395,12.35708c-2.3323,7.53764 -17.70315,22.92127 0.79954,16.6966c2.65546,-5.0851 1.56209,-11.66761 -0.79954,-16.6966zm-4.91122,34.26639c8.29368,12.76975 -16.56728,1.33942 0,0zm34.23582,13.20381c-2.87731,5.44278 7.73911,6.46033 -0.45684,6.45636c-4.33536,5.33359 -6.22028,-6.892 0.45684,-6.45636z" stroke-width="3.5" stroke="#000" fill="#ffe70f"/>
 </g>
</svg>