<?xml version="1.0"?>
<svg xmlns="http://www.w3.org/2000/svg" id="icon" viewBox="0 0 128 128" width="512" height="512"><path d="M121.524,87.842l-10.435,11.71-1.9,2.121Q91.9,92.845,74.621,84c-.233,10.656.061,21.912.025,24.61a34.247,34.247,0,0,1-1.68,10.962,10.3,10.3,0,0,1-2.183,3.642l-2.281-.76L57.368,118.73,53.2,117.344q1.1-16.7,2.219-33.39Q37.081,93.17,18.755,102.409l-2.219-2.526L6.506,88.492A10.337,10.337,0,0,1,8.995,85.07a34.642,34.642,0,0,1,9.454-5.812c4.083-1.8,30.079-9.638,38.282-15.426.061-.049.123-2.33.172-2.367,0,4.574.074-1.128.11-1.692a9.121,9.121,0,0,1,.92-4.059,6.11,6.11,0,0,1,5.162-2.649,17.946,17.946,0,0,1,5.91,1.2c2.747.883,5.763,2,7.038,4.574.736,1.5.736,5.077.49,6.756,10.778,5.812,29.674,11.4,33.108,12.924a34.55,34.55,0,0,1,9.405,5.886A10.334,10.334,0,0,1,121.524,87.842Z" fill="#e1b378"/><path d="M74.621,84c-.233,10.656.061,21.912.025,24.61a34.247,34.247,0,0,1-1.68,10.962,10.3,10.3,0,0,1-2.183,3.642l-2.281-.76c-.061-.392-.11-.8-.135-1.189a33.7,33.7,0,0,1,.564-7.186l2.466-3.716-.1-25.645c.159-2.857-.871-4.508.2-7.156s3.213-5.027,6.021-5.6c3.2-.662-6.636,4.25-4.429,6.666s27.9,14.717,31.178,14.852c1.57.074-1.121-5.222.375-4.719,2,.674,3.09,2.783,3.985,4.709a45.737,45.737,0,0,1,2.465,6.082l-1.9,2.121Q91.9,92.845,74.621,84Z" fill="#bd8d5a"/><path d="M59.674,83.715c-.4,5.1-.382,12.315-.787,17.416-.331,3.985.015,11.3-.3,15.286-.086,1.128-.872,1.245-1.216,2.312L53.2,117.344q1.1-16.7,2.219-33.39Q37.081,93.17,18.755,102.409l-2.219-2.526a3.076,3.076,0,0,1,2.134-.981l3.556-4.12a40.883,40.883,0,0,1,7.823-5.309c1.962-1.018,4-1.864,6.045-2.71q5.3-2.207,10.607-4.414a18.717,18.717,0,0,1,7.1-1.9c2.465.012,5.1,1.251,6,3.544C60.3,85.291,59.785,82.33,59.674,83.715Z" fill="#bd8d5a"/><path d="M70.787,124.213a1,1,0,0,1-.316-.051l-17.584-5.87a1,1,0,0,1-.682-1.015l2.1-31.648L19.207,103.3a1,1,0,0,1-1.2-.232L5.75,89.157a1,1,0,0,1-.175-1.042A11.3,11.3,0,0,1,8.31,84.349a35.339,35.339,0,0,1,9.733-6.012c1.125-.493,3.69-1.374,7.242-2.592,9.148-3.139,24.334-8.35,30.5-12.48.011-.191.022-.428.034-.664a6.359,6.359,0,0,1,.162-1.542c.014-.63.028-1.19.039-1.35a9.985,9.985,0,0,1,1.054-4.5,7.086,7.086,0,0,1,6-3.137,18.912,18.912,0,0,1,6.241,1.246c3.073.992,6.193,2.2,7.622,5.084.79,1.595.831,4.761.668,6.638,7.592,3.982,19.092,7.91,26.036,10.282,3.118,1.065,5.37,1.834,6.407,2.3a35.344,35.344,0,0,1,9.7,6.072,11.29,11.29,0,0,1,2.712,3.783,1,1,0,0,1-.181,1.041l-12.343,13.833a1,1,0,0,1-1.2.225L75.591,85.625c-.119,6.89-.036,13.765.021,18.428.026,2.141.045,3.75.034,4.57A35.327,35.327,0,0,1,73.9,119.93a11.288,11.288,0,0,1-2.4,3.987A1,1,0,0,1,70.787,124.213Zm-16.536-7.574,16.23,5.417a10.216,10.216,0,0,0,1.549-2.834A33.376,33.376,0,0,0,73.646,108.6c.011-.812-.009-2.4-.034-4.52-.061-5.036-.152-12.647.011-20.092a1,1,0,0,1,1.455-.869l33.876,17.317,11.392-12.767a10.224,10.224,0,0,0-1.992-2.543,33.412,33.412,0,0,0-9.121-5.684c-.954-.425-3.287-1.222-6.239-2.23C95.343,74.6,83.782,70.646,76.061,66.478a1,1,0,0,1-.515-1.022c.238-1.655.2-4.96-.4-6.171-1.083-2.185-3.777-3.208-6.444-4.069a17.225,17.225,0,0,0-5.577-1.15A5.165,5.165,0,0,0,58.8,56.222a8.339,8.339,0,0,0-.779,3.619c-.012.182-.027.918-.043,1.656-.015.674-.026,1.188-.059,1.578,0,.029,0,.051,0,.067h-.008a2.038,2.038,0,0,1-.173.746.894.894,0,0,1-.423.754c-6.146,4.336-21.94,9.756-31.377,12.994-3.374,1.158-6.038,2.072-7.087,2.532A33.384,33.384,0,0,0,9.691,85.8a10.234,10.234,0,0,0-2.007,2.531L19,101.164,54.966,83.056a1,1,0,0,1,1.448.959Z" fill="#2f3a5a"/><path d="M99.08,49.752c-1.574-6.876-4.731-13.2-7.858-19.447a34.193,34.193,0,0,1-5.143,11.361A54.658,54.658,0,0,0,80.259,19.3a11.932,11.932,0,0,1-.295,5.407c-.644,1.691-2.39,3.055-4.031,2.535-1.558-.494-2.316-2.344-2.746-4.015A34.252,34.252,0,0,1,75.052,1C65.867,1.507,57.1,7.39,52.7,16A31.1,31.1,0,0,0,53,44.155c-8.237-3.445-14.469-11.833-15.73-21.17-5.957,10.3-8.846,22.866-6.661,34.738,1.183,6.428,3.352,13.076,7.932,17.524,13.869,13.47,24.074,15.432,45.519,7.1A25.783,25.783,0,0,0,97.241,70.392C100.5,64.226,100.655,56.628,99.08,49.752Z" fill="#f14253"/><path d="M63.037,88.3c-9.179,0-16.561-3.952-25.19-12.333-4.011-3.9-6.7-9.8-8.218-18.06-2.1-11.428.369-24.338,6.779-35.42a1,1,0,0,1,1.857.367,26.319,26.319,0,0,0,12.6,19.135,32.281,32.281,0,0,1,.944-26.44C56.368,6.629,65.469.527,75,0a1,1,0,0,1,.968,1.408,33.371,33.371,0,0,0-1.809,21.569c.492,1.915,1.191,3.029,2.079,3.311,1.083.344,2.34-.746,2.794-1.937a11.2,11.2,0,0,0,.234-4.952,1,1,0,0,1,1.887-.55,55.74,55.74,0,0,1,5.718,19.687,33.345,33.345,0,0,0,3.382-8.47,1,1,0,0,1,1.865-.209c3.111,6.213,6.328,12.638,7.938,19.672h0c1.822,7.956,1.137,15.531-1.93,21.331a26.847,26.847,0,0,1-13.7,12.417C75.93,86.578,69.092,88.3,63.037,88.3ZM36.808,25.926c-5.18,10.1-7.079,21.475-5.213,31.616,1.441,7.834,3.942,13.391,7.645,16.988C53.023,87.916,63,89.459,83.7,81.412A24.819,24.819,0,0,0,96.357,69.925c2.843-5.376,3.463-12.461,1.749-19.95h0c-1.362-5.949-3.953-11.527-6.627-16.92A35.041,35.041,0,0,1,86.9,42.237a1,1,0,0,1-1.82-.533,53.426,53.426,0,0,0-3.844-17.826,7.415,7.415,0,0,1-.338,1.186c-.786,2.06-3.026,3.842-5.268,3.131-1.612-.511-2.728-2.055-3.412-4.72a35.508,35.508,0,0,1,1.272-21.33,26.65,26.65,0,0,0-19.9,14.31,30.09,30.09,0,0,0,.29,27.224,1,1,0,0,1-1.266,1.4A27.85,27.85,0,0,1,36.808,25.926Z" fill="#2f3a5a"/><path d="M47.742,53.689c.59,2.409,3,4.588,4.389,6.587a32.151,32.151,0,0,1,3.424-13.155,7.019,7.019,0,0,0,.173,3.18A2.112,2.112,0,0,0,58.1,51.792c.916-.291,1.363-1.378,1.615-2.362a20.148,20.148,0,0,0-1.1-13.074,16.153,16.153,0,0,1,13.146,8.823,18.3,18.3,0,0,1-.176,16.561A15.967,15.967,0,0,0,80.84,49.288a30.5,30.5,0,0,1,3.918,20.434,23.357,23.357,0,0,1-4.665,10.308c-1.733,2.166-4.169,4.625-6.847,5.32-1.068.277-18.5,6.146-27.68-8.176C43.352,73.719,42.025,62.734,47.742,53.689Z" fill="#ffc943"/><path d="M63.909,87.729c-6.3,0-14.023-1.962-19.185-10.017-2.413-3.764-3.75-15.189,2.173-24.558a1,1,0,0,1,1.816.3,11.942,11.942,0,0,0,2.625,4.2,33.25,33.25,0,0,1,3.325-10.982,1,1,0,0,1,1.888.55,6.3,6.3,0,0,0,.113,2.726c.219.575.774,1.01,1.134.894.212-.067.618-.373.949-1.657a19.213,19.213,0,0,0-1.042-12.417,1,1,0,0,1,.968-1.408,17.178,17.178,0,0,1,13.982,9.367,19.42,19.42,0,0,1,1.01,14.715,15.418,15.418,0,0,0,6.184-10.286,1,1,0,0,1,1.857-.367A31.588,31.588,0,0,1,85.742,69.9a24.255,24.255,0,0,1-4.868,10.751c-2.514,3.14-5,5.045-7.377,5.663l-.2.058A34.457,34.457,0,0,1,63.909,87.729Zm-16.3-31.8c-4.26,8.186-3.165,17.632-1.2,20.7,7.558,11.794,20.927,9.4,26.327,7.821l.26-.074c1.954-.507,4.08-2.182,6.317-4.978a22.247,22.247,0,0,0,4.463-9.863,29.037,29.037,0,0,0-2.552-17.368,16.717,16.717,0,0,1-9.25,10.49,1,1,0,0,1-1.266-1.4,17.276,17.276,0,0,0,.166-15.631,15.327,15.327,0,0,0-10.711-8.092,21.332,21.332,0,0,1,.521,12.137c-.163.631-.657,2.551-2.282,3.066a2.989,2.989,0,0,1-3.444-1.721,30.97,30.97,0,0,0-1.828,9.291,1,1,0,0,1-1.82.533c-.4-.569-.888-1.164-1.408-1.793A23.061,23.061,0,0,1,47.605,55.933Z" fill="#2f3a5a"/><path d="M103.767,92.832a11.17,11.17,0,0,1,.546-6.18,6.343,6.343,0,0,1,4.638-3.839c4.961-.76,7.98.234,9.806,1.548a10.943,10.943,0,0,1,4,6.2,8.21,8.21,0,0,1-1.412,6.732,15.722,15.722,0,0,1-3.3,3.242,10.053,10.053,0,0,1-3.537,1.792,8.076,8.076,0,0,1-7.36-2.321A12.871,12.871,0,0,1,103.767,92.832Z" fill="#bd8d5a"/><path d="M112.94,103.506a9.35,9.35,0,0,1-6.495-2.795,13.961,13.961,0,0,1-3.667-7.722h0a12.038,12.038,0,0,1,.617-6.735,7.3,7.3,0,0,1,5.4-4.43c4.457-.684,8-.1,10.542,1.724a11.839,11.839,0,0,1,4.391,6.779,9.151,9.151,0,0,1-1.582,7.556,16.6,16.6,0,0,1-3.51,3.452,10.85,10.85,0,0,1-3.9,1.959A7.694,7.694,0,0,1,112.94,103.506Zm-8.186-10.832a11.983,11.983,0,0,0,3.1,6.617,7.1,7.1,0,0,0,6.422,2.06,8.966,8.966,0,0,0,3.178-1.625,14.616,14.616,0,0,0,3.089-3.033,7.248,7.248,0,0,0,1.241-5.907,9.979,9.979,0,0,0-3.611-5.613c-2.1-1.511-5.153-1.971-9.071-1.372a5.367,5.367,0,0,0-3.872,3.249,10.094,10.094,0,0,0-.476,5.625Z" fill="#2f3a5a"/><path d="M24.23,93.594a11.17,11.17,0,0,0-.508-6.183,6.343,6.343,0,0,0-4.615-3.867c-4.957-.791-7.981.185-9.816,1.487A10.943,10.943,0,0,0,5.252,91.2a8.21,8.21,0,0,0,1.37,6.74,15.722,15.722,0,0,0,3.28,3.263,10.053,10.053,0,0,0,3.526,1.814,8.076,8.076,0,0,0,7.374-2.276A12.871,12.871,0,0,0,24.23,93.594Z" fill="#bd8d5a"/><path d="M15.042,104.212a7.709,7.709,0,0,1-1.854-.223A10.849,10.849,0,0,1,9.3,102.007a16.585,16.585,0,0,1-3.489-3.474A9.151,9.151,0,0,1,4.28,90.967a11.843,11.843,0,0,1,4.432-6.752c2.551-1.811,6.1-2.369,10.553-1.659a7.3,7.3,0,0,1,5.377,4.462,12.041,12.041,0,0,1,.575,6.739h0a13.958,13.958,0,0,1-3.714,7.7A9.355,9.355,0,0,1,15.042,104.212Zm.688-19.956a9.923,9.923,0,0,0-5.859,1.59,9.978,9.978,0,0,0-3.646,5.591,7.251,7.251,0,0,0,1.2,5.915A14.809,14.809,0,0,0,10.5,100.4a8.957,8.957,0,0,0,3.168,1.645,7.1,7.1,0,0,0,6.434-2.019,11.982,11.982,0,0,0,3.141-6.6h0A10.1,10.1,0,0,0,22.8,87.8a5.364,5.364,0,0,0-3.852-3.272A20.527,20.527,0,0,0,15.729,84.256Z" fill="#2f3a5a"/><path d="M59.184,108.87a11.17,11.17,0,0,1,5.893-1.941,6.343,6.343,0,0,1,5.36,2.743c2.659,4.257,2.939,7.423,2.455,9.62a10.943,10.943,0,0,1-4.11,6.124,8.21,8.21,0,0,1-6.741,1.364,15.722,15.722,0,0,1-4.283-1.749,10.053,10.053,0,0,1-3.044-2.54,8.076,8.076,0,0,1-.777-7.678A12.871,12.871,0,0,1,59.184,108.87Z" fill="#bd8d5a"/><path d="M63.951,128a9.312,9.312,0,0,1-2.142-.25,16.6,16.6,0,0,1-4.558-1.859,10.852,10.852,0,0,1-3.34-2.8A9,9,0,0,1,53,114.445a13.96,13.96,0,0,1,5.645-6.42,12.062,12.062,0,0,1,6.406-2.1h.025a7.3,7.3,0,0,1,6.2,3.213c2.389,3.823,3.258,7.311,2.583,10.365a11.84,11.84,0,0,1-4.491,6.712A9.1,9.1,0,0,1,63.951,128Zm1.1-20.075a10.118,10.118,0,0,0-5.336,1.787h0a11.984,11.984,0,0,0-4.853,5.463,7.09,7.09,0,0,0,.647,6.713,8.963,8.963,0,0,0,2.749,2.277,14.816,14.816,0,0,0,4.007,1.639,7.247,7.247,0,0,0,5.917-1.194,9.98,9.98,0,0,0,3.729-5.536c.558-2.525-.225-5.511-2.326-8.875a5.364,5.364,0,0,0-4.514-2.273Zm-5.871.941h0Z" fill="#2f3a5a"/></svg>
